<svg xmlns="http://www.w3.org/2000/svg" viewBox="0 0 425.82 170.58"><defs><style>.cls-1,.cls-3{fill:#fff;}.cls-2{fill:#f3b732;}.cls-3{font-size:27.04px;font-family:Montserrat-SemiBold, Montserrat;font-weight:600;}.cls-4{letter-spacing:-0.01em;}.cls-5{letter-spacing:-0.01em;}.cls-6{letter-spacing:-0.01em;}.cls-7{letter-spacing:-0.01em;}.cls-8{letter-spacing:0em;}.cls-9{fill:#25a559;fill-rule:evenodd;}</style></defs><g id="Capa_2" data-name="Capa 2"><g id="Capa_1-2" data-name="Capa 1"><path class="cls-1" d="M200.12,54a31.7,31.7,0,0,1-6.94,8.24,46.52,46.52,0,0,1-19.76,9.69v-.49c0-16.79-6.48-26-16.82-26a15.18,15.18,0,0,0-9.55,3.12C120.84,51.81,111,79.45,111,95.57c0,13.81,7.11,25,24.1,25,23.31,0,35.6-21,37.86-41.94a58.44,58.44,0,0,0,14.55-5.17c6.26-3.25,11.49-7.7,14.42-13.26a5.8,5.8,0,0,0,.48-2.13A4.53,4.53,0,0,0,200.12,54ZM139.44,111.2c-6.79,0-9.05-6.59-9.05-15.8,0-12,3.87-24,9.22-32.07.16,8.72,9,16.61,21.51,16.61h1.46C160,96.72,149.47,111.2,139.44,111.2ZM163.07,73h-.65c-9.22,0-14.89-4.6-14.89-12.83,0-4.27,1.62-6.25,4.86-6.25,5.17,0,10.68,5.59,10.68,18.75Z"/><path class="cls-1" d="M338.61,70.73c-.61,1.25-1.23,2.48-1.85,3.69-10.66,20.45-23.55,33.65-40.05,33.65-7.61,0-12.14-4.6-12.14-15.3a21.15,21.15,0,0,1,.17-3.28c17.63-2.15,40.61-12.51,40.61-30.27,0-7.24-4.7-13.82-18.29-13.82-20.38,0-34.34,17.23-39.43,34.34a49,49,0,0,0-2.15,13.85c0,.91,0,1.81.11,2.7,1,12.66,9.1,24.28,24.8,24.28,18.31,0,33.12-13.72,42.34-26.88,5.21-7.42,8.64-14.66,9.92-19.18C343.3,72.38,340.56,70.73,338.61,70.73ZM304,53.29c3.88,0,5,2.64,5,7.73,0,9.06-7.6,18.43-23.29,22.37C288.61,70.9,296.55,53.29,304,53.29Z"/><path class="cls-1" d="M421.29,70.73c-8.42,16.78-19.9,35.7-27.19,35.7-.31,0-.48-.66-.48-1.48,0-6.91,10.68-38,10.68-48,0-6.24-6-11.67-12.46-11.67-17.47,0-33.49,24.84-41.9,43.75l-.66-.49c2.59-9.71,10.36-27.14,10.36-32.9,0-8.06-9.38-10.2-15.85-10.2-1.41,5.19-4.3,16.85-7,29-1.48,6.59-2.91,13.32-4,19.27-1.33,7.07-2.21,13-2.21,16.19,0,6.25,7.44,10.85,16.34,10.85.33-2.46.81-9,1.62-13,7-23.19,27.66-48.85,35.27-48.85.81,0,1.13.82,1.13,2.3,0,7.07-10,36.85-10,44.74a15.36,15.36,0,0,0,15.69,14.64c10.52,0,25.4-24.18,35.28-46.06A4.63,4.63,0,0,0,421.29,70.73Z"/><path class="cls-1" d="M272.28,70.73c-1.3,2.78-2.88,5.87-4.65,9-7.09,12.64-17.09,26.35-22.53,26.35-1.95,0,4.37-22.2,9.05-44.73,1.76-8,4.15-16.7,6.35-24.82h0c.65-2.4,1.29-4.74,1.89-7l.06-.22c.3-1.15.6-2.27.87-3.35,0,0,0,0,0-.06-4.87-7.15-10-12.55-15.62-15.69-.46,2.59-.92,5.26-1.4,8-2,11.57-4.26,23.68-6.34,33a32.53,32.53,0,0,0-19.09-5.76c-12,0-21.24,6.88-27.65,16.79a61,61,0,0,0-5.7,11.27A83.3,83.3,0,0,0,182,103c0,7.4,6.79,17.6,15.36,17.6,11.81,0,29-22.7,38.51-43.75l.48.16c-2.42,9-9,24.34-10.19,30.93-.48,4.6,7.44,12.66,14.24,12.66,8.34,0,17.8-12,25.19-24.28A183.48,183.48,0,0,0,276.8,74.35,4.72,4.72,0,0,0,272.28,70.73Zm-67.8,33.88c-2.26,0-3.72-2.79-3.72-7.73,0-14.15,9.71-40.46,18.93-40.46,5,0,11.17,1.65,17.31,6.25C224.54,87.67,209.33,104.61,204.48,104.61Z"/><path class="cls-2" d="M260.52,37c1.41-5.49,5.33-21.38,5.77-24.86C267.26,2.8,260,0,249.46,0c-.57,3.19-2.6,14.57-3.23,18.15C251.81,21.29,260.1,22.47,260.52,37Z"/><text class="cls-3" transform="translate(174.66 161.69)"><tspan class="cls-4">C</tspan><tspan x="19.25" y="0">ON</tspan><tspan class="cls-5" x="63.92" y="0">S</tspan><tspan x="80.66" y="0">TRU</tspan><tspan class="cls-6" x="138.04" y="0">C</tspan><tspan class="cls-7" x="157.48" y="0">T</tspan><tspan class="cls-8" x="173.49" y="0">ORES</tspan></text><path class="cls-1" d="M101.91,110.09c-4.6-4.79-9.22-9.34-13.77-13.66A103.57,103.57,0,0,0,76.4,86.67l.64-.24c27.43-8.81,47.64-28.25,47.64-50.08,0-22.19-20.21-33.56-47.46-33.56C34.1,2.79,0,31,0,63.87,0,81.11,9.2,92.66,19.67,92.66c7.39,0,10.82-6,10.46-11.92C20.39,77.07,14.8,70.28,14.8,58c0-25.31,23.09-44.21,53.58-44.21,21.47,0,34.83,8.26,34.83,24.58,0,21.09-23.82,37.42-45.83,41.64,4.69-20,9.2-35.4,14.61-46.59-1.8-3.12-7-5.69-11.73-5.69-9.2,0-12.81,5-17.5,27.33-4,18.71-13,68.41-13.71,72.63a10.17,10.17,0,0,0,8.48,3.85c5.23,0,9.38-2,10.83-9.17,2.16-11.37,4.33-21.64,6.49-31.18,2.35-.26,4.69-.62,7-1a59.94,59.94,0,0,1,6,5.5c4.62,4.84,9.39,10.49,14.35,16.82q4,5.19,8.12,10.6a188.49,188.49,0,0,0,31.27,6.39c-2-1.72-3.88-3.51-5.78-5.41Q108.82,117.17,101.91,110.09Z"/><path class="cls-9" d="M113.1,151.22A98.21,98.21,0,0,0,129,165.27c5.3,3.64,10.55,5.42,15.8,5.31a15,15,0,0,0,9.68-3.75A26.86,26.86,0,0,0,160.6,159a21.73,21.73,0,0,0,2.48-7.78c.18-2.3-.29-3.46-1.39-3.46a38.07,38.07,0,0,1-16.43-2.82,73.57,73.57,0,0,1-15.21-8.53q-4.32-3.21-8.52-6.92a188.49,188.49,0,0,1-31.27-6.39l7.1,9.28C102.55,139.23,107.85,145.51,113.1,151.22Z"/></g></g></svg>